<svg xmlns="http://www.w3.org/2000/svg" width="32" height="32" viewBox="0 0 32 32"><title>  edit</title><path d="M15.9 21.1l2.1-2.1-2.7-2.7-2.1 2.1v1h1.7v1.7h1zM23.7 8.3q-0.3-0.3-0.6 0l-6.2 6.3q-0.3 0.3 0 0.6t0.6 0l6.3-6.2q0.3-0.3 0-0.6zM25.1 18.9v3.4q0 2.1-1.5 3.6t-3.6 1.5h-14.9q-2.1 0-3.6-1.5t-1.5-3.6v-14.9q0-2.1 1.5-3.6t3.6-1.5h14.9q1.1 0 2.1 0.4 0.3 0.1 0.3 0.4 0.1 0.3-0.2 0.5l-0.9 0.9q-0.2 0.3-0.6 0.1-0.4-0.1-0.8-0.1h-14.9q-1.2 0-2 0.8t-0.8 2v14.9q0 1.2 0.8 2t2 0.8h14.9q1.2 0 2-0.8t0.8-2v-2.2q0-0.2 0.2-0.4l1.1-1.1q0.3-0.3 0.6-0.1t0.4 0.5zM23.4 5.7l5.1 5.1-12 12h-5.1v-5.1zM31.4 8.1l-1.6 1.6-5.1-5.1 1.6-1.6q0.5-0.5 1.2-0.5t1.2 0.5l2.7 2.7q0.5 0.5 0.5 1.2t-0.5 1.2z" fill="#FFF"/></svg>