<svg xmlns="http://www.w3.org/2000/svg" width="25" height="32" viewBox="0 0 25 32"><title>  trash</title><path d="M9.1 13.1v10.3q0 0.3-0.2 0.4t-0.4 0.2h-1.1q-0.2 0-0.4-0.2t-0.2-0.4v-10.3q0-0.2 0.2-0.4t0.4-0.2h1.1q0.3 0 0.4 0.2t0.2 0.4zM13.7 13.1v10.3q0 0.3-0.2 0.4t-0.4 0.2h-1.1q-0.2 0-0.4-0.2t-0.2-0.4v-10.3q0-0.2 0.2-0.4t0.4-0.2h1.1q0.3 0 0.4 0.2t0.2 0.4zM18.3 13.1v10.3q0 0.3-0.2 0.4t-0.4 0.2h-1.1q-0.2 0-0.4-0.2t-0.2-0.4v-10.3q0-0.2 0.2-0.4t0.4-0.2h1.1q0.3 0 0.4 0.2t0.2 0.4zM20.6 26.1v-16.9h-16v16.9q0 0.4 0.1 0.7t0.3 0.5 0.2 0.2h14.9q0.1 0 0.2-0.2t0.3-0.5 0.1-0.7zM8.6 6.9h8l-0.9-2.1q-0.1-0.2-0.3-0.2h-5.7q-0.2 0-0.3 0.2zM25.1 7.4v1.1q0 0.3-0.2 0.4t-0.4 0.2h-1.7v16.9q0 1.5-0.8 2.6t-2 1.1h-14.9q-1.2 0-2-1t-0.8-2.5v-17h-1.7q-0.2 0-0.4-0.2t-0.2-0.4v-1.1q0-0.2 0.2-0.4t0.4-0.2h5.5l1.3-3q0.3-0.7 1-1.1t1.4-0.5h5.7q0.7 0 1.4 0.5t1 1.1l1.3 3h5.5q0.3 0 0.4 0.2t0.2 0.4z" fill="#FFF"/></svg>
